<?xml version="1.0" encoding="utf-8"?>
<!-- Generator: Adobe Illustrator 22.0.0, SVG Export Plug-In . SVG Version: 6.00 Build 0)  -->
<svg version="1.1" id="Layer_1" xmlns="http://www.w3.org/2000/svg" xmlns:xlink="http://www.w3.org/1999/xlink" x="0px" y="0px"
	 viewBox="0 0 30 30.8" style="enable-background:new 0 0 30 30.8;" xml:space="preserve">
<style type="text/css">
	.st0{display:none;}
	.st1{display:inline;}
	.st2{fill:#12284D;}
</style>
<g class="st0">
	<g class="st1">
		<g>
			<g>
				<path class="st2" d="M15,0.4C9,0.4,4.1,5.3,4.1,11.2c0,7.4,9.7,18.3,10.1,18.8c0.4,0.4,1.1,0.4,1.5,0
					c0.4-0.5,10.1-11.4,10.1-18.8C25.9,5.3,21,0.4,15,0.4z M15,16.7c-3,0-5.5-2.5-5.5-5.5S12,5.8,15,5.8s5.5,2.5,5.5,5.5
					S18,16.7,15,16.7z"/>
			</g>
		</g>
	</g>
</g>
<g>
	<path class="st2" d="M0,5.5v19.9h30V5.5H0z M15,17.7L2.7,6.9h24.6L15,17.7z M10.1,15.4l-8.6,7.6V7.8L10.1,15.4z M11.2,16.4l3.8,3.3
		l3.8-3.3l8.5,7.5H2.7L11.2,16.4z M19.9,15.4l8.6-7.6v15.1L19.9,15.4z"/>
</g>
</svg>
