<?xml version="1.0" encoding="utf-8"?>
<!-- Generator: Adobe Illustrator 22.0.0, SVG Export Plug-In . SVG Version: 6.00 Build 0)  -->
<svg version="1.1" id="Layer_1" xmlns="http://www.w3.org/2000/svg" xmlns:xlink="http://www.w3.org/1999/xlink" x="0px" y="0px"
	 viewBox="0 0 20 44.3" style="enable-background:new 0 0 20 44.3;" xml:space="preserve">
<style type="text/css">
	.st0{fill:#12284D;}
</style>
<g>
	<g>
		<g>
			<path class="st0" d="M15.1,2.9c-2.2-1.6-4.5-2.6-4.6-2.7L10,0L9.5,0.2c-0.1,0-2.3,1-4.6,2.7c-3.2,2.3-4.9,4.8-4.9,7.2v6.6l10-3.3
				l10,3.3v-6.6C20,7.7,18.4,5.2,15.1,2.9z M10,8.7c-0.7,0-1.3-0.6-1.3-1.3S9.3,6.1,10,6.1c0.7,0,1.3,0.6,1.3,1.3S10.7,8.7,10,8.7z"
				/>
		</g>
	</g>
	<g>
		<g>
			<polygon class="st0" points="13.9,17.3 13.9,24.9 20,26.9 20,19.3 			"/>
		</g>
	</g>
	<g>
		<g>
			<polygon class="st0" points="0,19.3 0,26.9 6.1,24.9 6.1,17.3 			"/>
		</g>
	</g>
	<g>
		<g>
			<polygon class="st0" points="0,29.4 0,37 6.1,35 6.1,27.4 			"/>
		</g>
	</g>
	<g>
		<g>
			<polygon class="st0" points="13.9,27.4 13.9,35 20,37 20,29.4 			"/>
		</g>
	</g>
	<g>
		<g>
			<path class="st0" d="M11.3,36.7V16.6L10,16.2l-1.3,0.4v22.5H10c0.7,0,1.3,0.5,1.3,1.1c0.1,0.8-0.5,1.4-1.3,1.4
				c-0.7,0-1.3-0.6-1.3-1.3H6.1c0,2.2,1.8,4,4.1,3.9c2-0.1,3.6-1.7,3.7-3.7C14,38.8,12.9,37.3,11.3,36.7z"/>
		</g>
	</g>
</g>
</svg>
