<?xml version="1.0" encoding="utf-8"?>
<!-- Generator: Adobe Illustrator 22.0.0, SVG Export Plug-In . SVG Version: 6.00 Build 0)  -->
<svg version="1.1" id="Layer_1" xmlns="http://www.w3.org/2000/svg" xmlns:xlink="http://www.w3.org/1999/xlink" x="0px" y="0px"
	 viewBox="0 0 40 40" style="enable-background:new 0 0 40 40;" xml:space="preserve">
<style type="text/css">
	.st0{fill:#12284D;}
</style>
<g>
	<g>
		<g>
			<g>
				<g>
					<path class="st0" d="M23.6,17.2c-1.7,0-2.5,0.9-2.9,1.6v-1.4h-3.2c0,0.9,0,9.6,0,9.6h3.2v-5.4c0-0.3,0-0.6,0.1-0.8
						c0.2-0.6,0.8-1.2,1.7-1.2c1.2,0,1.6,0.9,1.6,2.2v5.2h3.3h0v-5.6C27.4,18.6,25.8,17.2,23.6,17.2z M20.7,18.8L20.7,18.8
						C20.7,18.8,20.7,18.8,20.7,18.8L20.7,18.8z"/>
					<rect x="12.5" y="17.4" class="st0" width="3.2" height="9.7"/>
					<path class="st0" d="M20,0C9,0,0,9,0,20c0,11,9,20,20,20c11,0,20-9,20-20C40,9,31,0,20,0z M30.6,29.1c0,0.9-0.7,1.5-1.6,1.5
						H10.8c-0.9,0-1.6-0.7-1.6-1.5V10.7c0-0.9,0.7-1.5,1.6-1.5H29c0.9,0,1.6,0.7,1.6,1.5L30.6,29.1L30.6,29.1z"/>
					<path class="st0" d="M14.1,12.7c-1.1,0-1.8,0.7-1.8,1.7c0,0.9,0.7,1.7,1.8,1.7h0c1.1,0,1.8-0.7,1.8-1.7
						C15.9,13.5,15.2,12.7,14.1,12.7z"/>
				</g>
			</g>
		</g>
	</g>
</g>
</svg>
