<?xml version="1.0" encoding="utf-8"?>
<!-- Generator: Adobe Illustrator 22.0.0, SVG Export Plug-In . SVG Version: 6.00 Build 0)  -->
<svg version="1.1" id="Layer_1" xmlns="http://www.w3.org/2000/svg" xmlns:xlink="http://www.w3.org/1999/xlink" x="0px" y="0px"
	 viewBox="0 0 512 512" style="enable-background:new 0 0 512 512;" xml:space="preserve">
<style type="text/css">
	.st0{fill:#12284D;}
</style>
<g>
	<path class="st0" d="M256,0C114.5,0,0,114.5,0,256c0,141.5,114.5,256,256,256c141.5,0,256-114.5,256-256C512,114.5,397.5,0,256,0z
		 M371.3,273.1h-98.3v98.3c0,9.4-7.6,17.1-17.1,17.1s-17.1-7.6-17.1-17.1v-98.3h-98.3c-9.4,0-17.1-7.6-17.1-17.1s7.6-17.1,17.1-17.1
		h98.3v-98.3c0-9.4,7.6-17.1,17.1-17.1s17.1,7.6,17.1,17.1v98.3h98.3c9.4,0,17.1,7.6,17.1,17.1C388.4,265.4,380.8,273.1,371.3,273.1
		z"/>
</g>
</svg>
