<?xml version="1.0" encoding="utf-8"?>
<!-- Generator: Adobe Illustrator 22.0.0, SVG Export Plug-In . SVG Version: 6.00 Build 0)  -->
<svg version="1.1" id="Layer_1" xmlns="http://www.w3.org/2000/svg" xmlns:xlink="http://www.w3.org/1999/xlink" x="0px" y="0px"
	 viewBox="0 0 512 512" style="enable-background:new 0 0 512 512;" xml:space="preserve">
<style type="text/css">
	.st0{fill:#12284D;}
	.st1{fill:#FFFFFF;}
</style>
<circle class="st0" cx="256" cy="256" r="256"/>
<path class="st1" d="M397.9,162.5c-6.5,2.9-13.3,5.2-20.2,6.8c7.6-7.3,13.4-16.3,16.6-26.5c0.9-2.9-2.2-5.4-4.8-3.8
	c-9.6,5.7-20,10-30.9,12.8c-0.6,0.2-1.3,0.2-1.9,0.2c-2,0-3.9-0.7-5.4-2.1c-11.5-10.2-26.4-15.8-41.8-15.8c-6.7,0-13.4,1-20,3.1
	c-20.5,6.4-36.3,23.3-41.3,44.1c-1.9,7.8-2.4,15.6-1.5,23.3c0.1,0.9-0.3,1.5-0.6,1.8c-0.4,0.5-1.1,0.8-1.7,0.8c-0.1,0-0.1,0-0.2,0
	c-44.8-4.2-85.3-25.8-113.9-60.8c-1.5-1.8-4.3-1.6-5.4,0.4c-5.6,9.6-8.6,20.6-8.6,31.8c0,17.1,6.9,33.3,18.8,45
	c-5-1.2-9.9-3.1-14.4-5.6c-2.2-1.2-4.9,0.4-4.9,2.9c-0.3,25.4,14.6,48.1,36.9,58.3c-0.4,0-0.9,0-1.4,0c-3.5,0-7.1-0.3-10.6-1
	c-2.5-0.5-4.5,1.9-3.8,4.3c7.2,22.6,26.7,39.3,50,43.1c-19.3,13-41.9,19.8-65.3,19.8l-7.3,0c-2.3,0-4.2,1.5-4.7,3.6
	c-0.6,2.1,0.5,4.4,2.4,5.5c26.4,15.4,56.5,23.5,87.1,23.5c26.8,0,51.8-5.3,74.5-15.8c20.7-9.6,39.1-23.3,54.5-40.8
	c14.4-16.3,25.6-35.1,33.4-55.9c7.4-19.8,11.3-41,11.3-61.2v-1c0-3.2,1.5-6.3,4-8.4c9.7-7.9,18.2-17.2,25.1-27.6
	C403.8,164.6,400.9,161.1,397.9,162.5L397.9,162.5z"/>
</svg>
